<svg width="23" height="23" viewBox="0 0 23 23" fill="none" xmlns="http://www.w3.org/2000/svg">
<path d="M19.9379 4.15809L19.936 4.15484C19.6509 3.66825 19.0828 3.44438 18.5425 3.58579L18.5425 3.58576L18.5375 3.58714L16.1294 4.24446L15.3933 3.82056L14.786 1.44286C14.7859 1.44276 14.7859 1.44265 14.7859 1.44254C14.6483 0.902915 14.1544 0.519592 13.5906 0.519592H9.19357C8.62968 0.519592 8.13568 0.903067 7.99819 1.44286L7.39091 3.82056L6.65478 4.24446L4.24669 3.58714L4.24669 3.58712L4.24163 3.58579C3.70138 3.44438 3.13322 3.66825 2.84817 4.15484L2.84815 4.15484L2.84628 4.15809L0.685228 7.91151C0.399738 8.40077 0.488704 9.01675 0.909195 9.40618C0.909579 9.40653 0.909964 9.40689 0.910348 9.40724L2.71502 11.0927L2.71959 11.8055L0.934229 13.5116C0.934107 13.5117 0.933986 13.5118 0.933864 13.512C0.52493 13.9015 0.436682 14.5154 0.722941 15.0041L0.722929 15.0041L0.724851 15.0073L2.94343 18.7301C2.94377 18.7307 2.9441 18.7313 2.94444 18.7319C3.2297 19.217 3.80856 19.4448 4.34824 19.2889C4.34868 19.2888 4.34912 19.2886 4.34956 19.2885L6.7485 18.6053L7.39168 18.9667L7.99819 21.3414C8.13567 21.8812 8.62958 22.2647 9.19357 22.2647H13.5906C14.1545 22.2647 14.6485 21.8812 14.786 21.3414L15.3925 18.9667L16.0357 18.6053L18.4346 19.2885C18.4351 19.2886 18.4355 19.2888 18.436 19.2889C18.9757 19.4448 19.5546 19.217 19.8398 18.7317C19.8401 18.7312 19.8404 18.7307 19.8407 18.7301L22.0593 15.0073L22.0593 15.0073L22.0612 15.0041C22.3475 14.5153 22.2592 13.9012 21.85 13.5117C21.85 13.5117 21.85 13.5116 21.8499 13.5116L20.0646 11.8055L20.0691 11.0927L21.8738 9.40724C21.8741 9.40693 21.8745 9.40663 21.8748 9.40632C22.2955 9.01686 22.3845 8.40073 22.0989 7.91139C22.0985 7.91082 22.0982 7.91025 22.0979 7.90968L19.9379 4.15809L19.9379 4.15809ZM11.3921 14.9707C9.37296 14.9707 7.7369 13.3515 7.7369 11.3921C7.7369 9.43275 9.37296 7.81361 11.3921 7.81361C13.4112 7.81361 15.0473 9.43275 15.0473 11.3921C15.0473 13.3515 13.4112 14.9707 11.3921 14.9707Z" fill="white" stroke="#8014EE"/>
</svg>
