<svg width="19" height="18" viewBox="0 0 19 18" fill="none" xmlns="http://www.w3.org/2000/svg">
<path d="M13.801 0.690429L13.6509 0.5H13.4084H9.5005H5.59162H5.34912L5.19898 0.690429L1.60736 5.2458L1.37435 5.54133L1.59387 5.84702L9.09437 16.2916L9.50052 16.8572L9.90665 16.2916L17.4061 5.84699L17.6256 5.54131L17.3926 5.2458L13.801 0.690429Z" fill="#ED6FF7" stroke="white"/>
<path d="M13.4084 1H9.5005H5.59162L2 5.55537L9.5005 16L17 5.55537L13.4084 1Z" fill="#ED6FF7"/>
<path d="M9.50049 5.43665H5.75024L9.50049 16L13.2497 5.43665H9.50049Z" fill="#E249F2"/>
<path d="M9.50049 1L5.75024 5.43665H13.2497L9.50049 1Z" fill="#FA6AFF"/>
<path d="M2 5.55537H5.75025L9.5005 1H5.59162L2 5.55537Z" fill="#E249F2"/>
<path d="M13.2497 5.43665H17L13.4084 1H9.50049L13.2497 5.43665Z" fill="#F989FF"/>
<path d="M12.9684 6.25871C13.8663 6.25871 13.8663 4.86197 12.9684 4.86197C12.0704 4.86197 12.0704 6.25871 12.9684 6.25871Z" fill="white"/>
</svg>